<?xml version="1.0" standalone="no"?>
<!DOCTYPE svg PUBLIC "-//W3C//DTD SVG 1.1//EN" "http://www.w3.org/Graphics/SVG/1.1/DTD/svg11.dtd" >
<!--
2013-9-30: Created.
-->
<svg>
<metadata>
Created by iconfont
</metadata>
<defs>

<font id="iconfont" horiz-adv-x="1024" >
  <font-face
    font-family="iconfont"
    font-weight="500"
    font-stretch="normal"
    units-per-em="1024"
    ascent="896"
    descent="-128"
  />
    <missing-glyph />
    
    <glyph glyph-name="fanhui" unicode="&#58989;" d="M730.490711-52.818581 375.66338 302.007727 730.490711 656.834035c20.9788 20.9788 20.9788 54.993498 0 75.972299-20.979824 20.979824-54.993498 20.979824-75.973322 0l-382.584512-382.583488c-11.18883-11.18883-16.282848-31.567973-15.486716-48.41057-0.793062-16.733103 4.300956-36.83493 15.486716-48.021713l382.584512-382.584512c20.979824-20.979824 54.993498-20.979824 75.972299 0C751.469512-107.813103 751.469512-73.798405 730.490711-52.818581z"  horiz-adv-x="1024" />

    
    <glyph glyph-name="tiaoxingma" unicode="&#58964;" d="M64 768.192l115.84 0 0-768.384-115.84 0 0 768.384ZM217.6 768.192l54.464 0 0-768.384-54.464 0 0 768.384ZM342.912 768.192l68.544 0 0-768.384-68.544 0 0 768.384ZM539.136 768.192l118.272 0 0-768.384-118.272 0 0 768.384ZM688.064 768.192l44.992 0 0-768.384-44.992 0 0 768.384ZM803.968 768.192l156.032 0 0-768.384-156.032 0 0 768.384Z"  horiz-adv-x="1024" />

    
    <glyph glyph-name="search" unicode="&#58896;" d="M948.032-18.784l-206.976 206.976c56.64 66.88 90.944 153.28 90.944 247.808 0 212.064-171.936 384-384 384s-384-171.936-384-384 171.936-384 384-384c94.528 0 180.928 34.304 247.808 90.912l206.976-206.976c14.016-14.016 35.488-15.232 48-2.72 12.48 12.512 11.264 33.984-2.752 48zM448 116c-176.736 0-320 143.264-320 320s143.264 320 320 320 320-143.264 320-320-143.264-320-320-320z"  horiz-adv-x="1024" />

    
    <glyph glyph-name="unie62a" unicode="&#58949;" d="M896 404l0 128-320 0 0 320-128 0 0-320-320 0 0-128 320 0 0-320 128 0 0 320 320 0z"  horiz-adv-x="1024" />

    
    <glyph glyph-name="shouye" unicode="&#58887;" d="M584.233-64.007h-271.615c-78.786 0-142.885 73.479-142.885 163.793l0 248.904h-84.422c-8.969 0-16.991 6.352-20.169 15.957-3.171 9.605-0.827 20.461 5.882 27.267l427.496 433.528c8.155 8.27 20.421 8.27 28.577 0l427.496-433.528c6.709-6.806 9.053-17.662 5.882-27.267-3.177-9.606-11.2-15.957-20.17-15.957h-84.42v-248.904c0-56.641-24.991-108.495-66.85-138.711-10.063-7.271-23.385-3.797-29.727 7.757-6.344 11.551-3.32 26.803 6.758 34.076 29.243 21.108 46.702 57.324 46.702 96.878v273.616c0 13.649 9.658 24.714 21.56 24.714h49.081l-370.601 375.823-370.599-375.823h49.081c11.901 0 21.558-11.065 21.558-24.714v-273.617c0-63.058 44.757-114.369 99.769-114.369h271.615c11.902 0 21.558-11.066 21.558-24.71 0-13.66-9.656-24.714-21.558-24.714zM583.702-64.007c-11.903 0-21.562 11.054-21.562 24.714 0 13.644 9.659 24.71 21.562 24.71 21.555 0 39.097 20.111 39.097 44.825v201.741c0 24.72-17.543 44.831-39.097 44.831h-141.779c-21.564 0-39.109-20.11-39.109-44.831v-129.773c0-13.662-9.656-24.714-21.557-24.714-11.903 0-21.558 11.053-21.558 24.714v129.773c0 51.975 36.883 94.256 82.224 94.256h141.779c45.33 0 82.215-42.281 82.215-94.256v-201.741c-0-51.967-36.885-94.249-82.215-94.249z"  horiz-adv-x="1024" />

    
    <glyph glyph-name="sousuo" unicode="&#58922;" d="M128.512 475.136z m-71.168 0zM615.424 475.136z m-71.68 0zM372.224 475.136z m-71.68 0zM951.296-19.968l-215.04 215.04c27.136 31.232 49.152 66.048 65.536 103.936 19.968 47.104 30.208 97.28 30.208 148.992 0 51.712-10.24 101.888-30.208 148.992-19.456 45.568-47.104 86.528-81.92 121.856s-76.288 62.976-121.856 81.92c-47.104 19.968-97.28 30.208-148.992 30.208s-101.888-10.24-148.992-30.208c-45.568-19.456-86.528-47.104-121.856-81.92s-62.976-76.288-81.92-121.856c-19.968-47.104-30.208-97.28-30.208-148.992s10.24-101.888 30.208-148.992c19.456-45.568 47.104-86.528 81.92-121.856 35.328-35.328 76.288-62.976 121.856-81.92 47.104-19.968 97.28-30.208 148.992-30.208 51.712 0 101.888 10.24 148.992 30.208 38.4 16.384 73.216 38.4 103.936 65.536l215.04-215.04c4.608-4.608 10.752-7.168 16.896-7.168s12.288 2.56 16.896 7.168c10.24 9.728 10.24 25.088 0.512 34.304z m-502.784 133.632c-89.6 0-173.568 34.816-236.544 97.792-62.976 62.976-97.792 147.456-97.792 236.544 0 89.6 34.816 173.568 97.792 236.544s147.456 97.792 236.544 97.792 173.568-34.816 236.544-97.792S783.36 538.112 783.36 448.512c0-87.552-33.28-169.984-94.208-232.96-1.536-1.024-2.56-2.048-4.096-3.072-1.024-1.024-2.56-2.56-3.072-4.096-62.976-60.928-145.408-94.72-233.472-94.72z"  horiz-adv-x="1024" />

    
    <glyph glyph-name="yunshuzhongwuliu-xianxing" unicode="&#59522;" d="M957.6 323.2l-120.8 181.6c-3.2 4.8-8 7.2-13.6 7.2H704V672c0 17.6-14.4 32-32 32H96c-17.6 0-32-14.4-32-32v-448c0-17.6 14.4-32 32-32h32c0-70.4 57.6-128 128-128s128 57.6 128 128h256c0-70.4 57.6-128 128-128s128 57.6 128 128h32c17.6 0 32 14.4 32 32V314.4c0 3.2-0.8 6.4-2.4 8.8zM256 128c-35.2 0-64 28.8-64 64s28.8 64 64 64 64-28.8 64-64-28.8-64-64-64z m384 128H366.4c-22.4 38.4-63.2 64-110.4 64s-88.8-25.6-110.4-64H128V640h512v-384z m128-128c-35.2 0-64 28.8-64 64s28.8 64 64 64 64-28.8 64-64-28.8-64-64-64z m128 128h-17.6c-22.4 38.4-63.2 64-110.4 64-23.2 0-44.8-6.4-64-17.6V448h95.2c5.6 0 10.4-2.4 12.8-7.2l80.8-116.8c1.6-2.4 3.2-5.6 3.2-8.8V256z"  horiz-adv-x="1024" />

    
    <glyph glyph-name="chaibaoguoqujian-xianxing" unicode="&#59525;" d="M512 192h256v-64H512zM576 320h192v-64H576zM885.6 576L539.2 702.4l-21.6-60L698.4 576H251.2l287.2 206.4-37.6 52L141.6 576H128v-544c0-17.6 14.4-32 32-32h704c17.6 0 32 14.4 32 32V576h-10.4z m-53.6-512H192V544h640v-480z"  horiz-adv-x="1024" />

    
    <glyph glyph-name="shangpin-xianxing" unicode="&#59529;" d="M832 640H640V735.2c0 17.6-14.4 32.8-32.8 32.8H416c-17.6 0-32.8-14.4-32.8-32.8V640H192l-64-576c0-35.2 28.8-64 64-64h640c35.2 0 64 28.8 64 64l-64 576z m-384 64h128v-64H448v64z m326.4-128l56.8-512H192l56.8 512M447.2 543.2H384V480h63.2v63.2zM640 543.2h-63.2V480H640v63.2z"  horiz-adv-x="1024" />

    
    <glyph glyph-name="jifen-xianxing" unicode="&#59543;" d="M844.8 713.6c-34.4 16.8-80.8 30.4-140 40C645.6 763.2 581.6 768 512 768c-69.6 0-133.6-4.8-192.8-14.4-59.2-9.6-105.6-23.2-140-40-34.4-16.8-51.2-35.2-51.2-55.2v-103.2c0-20 16.8-38.4 51.2-55.2 34.4-16.8 80.8-30.4 140-40 59.2-9.6 123.2-14.4 192.8-14.4 69.6 0 133.6 4.8 192.8 14.4 59.2 9.6 105.6 23.2 140 40 34.4 16.8 51.2 35.2 51.2 55.2V658.4c0 20-16.8 38.4-51.2 55.2zM832 567.2c-3.2-2.4-8-5.6-16-8.8-28.8-14.4-69.6-25.6-122.4-34.4-55.2-9.6-116.8-13.6-181.6-13.6-65.6 0-126.4 4.8-181.6 13.6-52.8 8.8-94.4 20-122.4 34.4-8 4-12.8 7.2-16 8.8v80c3.2 2.4 8 5.6 16 8.8 28.8 14.4 69.6 25.6 122.4 34.4C385.6 700 447.2 704 512 704c65.6 0 126.4-4.8 181.6-13.6 52.8-8.8 93.6-20.8 122.4-34.4 8-4 12.8-7.2 16-8.8v-80zM128 136v-26.4c0-20 16.8-38.4 51.2-55.2s80.8-30.4 140-40c59.2-9.6 123.2-14.4 192.8-14.4s133.6 4.8 192.8 14.4c59.2 9.6 105.6 23.2 140 40 34.4 16.8 51.2 35.2 51.2 55.2v32.8c-40-24-93.6-42.4-162.4-54.4-68.8-12-142.4-18.4-221.6-18.4s-152.8 6.4-221.6 18.4C221.6 100.8 168 118.4 128 142.4M128 288v-29.6c0-20 16.8-38.4 51.2-55.2 34.4-16.8 80.8-30.4 140-40 59.2-9.6 123.2-14.4 192.8-14.4s133.6 4.8 192.8 14.4c59.2 9.6 105.6 23.2 140 40 34.4 16.8 51.2 35.2 51.2 55.2v32.8c-40-24-93.6-42.4-162.4-54.4-68.8-12-142.4-18.4-221.6-18.4s-152.8 6.4-221.6 18.4C221.6 249.6 168 267.2 128 291.2M128 440v-29.6c0-20 16.8-38.4 51.2-55.2 34.4-16.8 80.8-30.4 140-40 59.2-9.6 123.2-14.4 192.8-14.4s133.6 4.8 192.8 14.4c59.2 9.6 105.6 23.2 140 40 34.4 16.8 51.2 35.2 51.2 55.2v32.8c-40-24-93.6-42.4-162.4-54.4-68.8-12-142.4-18.4-221.6-18.4s-152.8 6.4-221.6 18.4C221.6 401.6 168 419.2 128 443.2"  horiz-adv-x="1024" />

    
    <glyph glyph-name="zhangdan-xianxing" unicode="&#59550;" d="M800 704H640c0 70.4-57.6 128-128 128s-128-56.8-128-128H224c-17.6 0-32-14.4-32-32v-704c0-17.6 14.4-32 32-32h576c17.6 0 32 14.4 32 32V672c0 17.6-14.4 32-32 32z m-288 32c17.6 0 32-14.4 32-32s-14.4-32-32-32-32 14.4-32 32 14.4 32 32 32z m256-736H256V640h64v-64h384v64h64v-640zM589.6 384H672v-64H544v-64h128v-64H544v-128h-64V192H352v64h128v64H352v64h82.4L352 466.4l45.6 45.6L512 397.6 626.4 512l45.6-45.6L589.6 384z"  horiz-adv-x="1024" />

    
    <glyph glyph-name="kuaidiyuan-xianxing" unicode="&#59663;" d="M512.8 320c-128 0-383.2-64-383.2-192v-96c0-17.6 14.4-32 32-32h191.2V160h320v-160h192c17.6 0 32 14.4 32 32V128.8C896 256 640.8 320 512.8 320z m319.2-256H704V176c0 8.8-7.2 16-16 16H336c-8.8 0-16-7.2-16-16v-112H192.8v64.8c0 26.4 40 58.4 103.2 84 75.2 29.6 162.4 43.2 216 43.2 53.6 0 140.8-13.6 216-43.2 64-25.6 103.2-57.6 103.2-84l0.8-64.8z m-256 32h64v-32h-64v32z m-64-64h128v-32H512v32zM512 832c-101.6 0-187.2-67.2-214.4-160H192v-32h98.4c-1.6-10.4-2.4-20.8-2.4-32 0-124 100-224 224-224s224 100 224 224S636 832 512 832z m0-64c63.2 0 116.8-36.8 143.2-89.6C622.4 691.2 574.4 704 512 704c-60 0-108-11.2-142.4-23.2C396 732 449.6 768 512 768z m0-320c-88 0-160 72-160 160 0 11.2 0.8 21.6 3.2 32 30.4 13.6 84 32 156.8 32 78.4 0 132-21.6 156.8-34.4 1.6-9.6 3.2-19.2 3.2-29.6 0-88-72-160-160-160z"  horiz-adv-x="1024" />

    
    <glyph glyph-name="yonghuziliao-xianxing" unicode="&#59676;" d="M896 640v-512H128V640h768m32 64H96c-17.6 0-32-14.4-32-32v-576c0-17.6 14.4-32 32-32h832c17.6 0 32 14.4 32 32V672c0 17.6-14.4 32-32 32zM378.4 576c-48-2.4-87.2-41.6-90.4-89.6-4-56 40.8-103.2 96-103.2 53.6 0 96 43.2 96 96 0.8 55.2-45.6 100-101.6 96.8z m5.6-223.2c-64 0-192-32-192-96v-48c0-8.8 7.2-16 16-16h352c8.8 0 16 7.2 16 16v48.8c0 63.2-128 95.2-192 95.2zM832 512H576v-32h256v32z m0 64H576v-32h256v32z m0-128H704v-32h128v32z"  horiz-adv-x="1024" />

    
    <glyph glyph-name="pifuzhuti-xianxing" unicode="&#59678;" d="M715.2 703.2L872 617.6l-40.8-71.2-32 18.4-96 54.4v-553.6h-384V613.6l-94.4-52-31.2-17.6-40.8 72 158.4 86.4c38.4-60.8 115.2-100 201.6-100 86.4 1.6 163.2 40 202.4 100.8m16 64h-46.4c-6.4 0-12.8-4-15.2-10.4-19.2-51.2-82.4-89.6-156.8-89.6-75.2 0-137.6 37.6-156.8 89.6-2.4 6.4-8 10.4-15.2 10.4h-46.4l-216-117.6c-8-4-10.4-14.4-6.4-21.6L160.8 472c3.2-4.8 8-8 13.6-8 2.4 0 5.6 0.8 8 1.6l72.8 40v-472.8c0-17.6 14.4-32 32-32h448c17.6 0 32 14.4 32 32V508l73.6-41.6c2.4-1.6 5.6-2.4 8-2.4 5.6 0 11.2 3.2 13.6 8L952 628c4 8 1.6 17.6-5.6 21.6L731.2 767.2z"  horiz-adv-x="1024" />

    
    <glyph glyph-name="yinhangqia" unicode="&#59702;" d="M960 640v-64H64v64c0 35.2 28.8 64 64 64h768c35.2 0 64-28.8 64-64z m0-128v-384c0-35.2-28.8-64-64-64H128c-35.2 0-64 28.8-64 64V512h896zM256 256H128v-32h128v32z m128 64H128v-32h256v32z"  horiz-adv-x="1024" />

    
    <glyph glyph-name="fenlei" unicode="&#58920;" d="M1000.768 186.56a23.168 23.168 0 0 0-16.448 6.784l-116.096 116.16a23.232 23.232 0 1 0 32.832 32.832l116.16-116.16a23.232 23.232 0 0 0-16.448-39.616zM696.832 232.96c-166.464 0-301.952 135.488-301.952 302.08S530.368 836.864 696.832 836.864s302.016-135.424 302.016-301.952-135.488-301.952-302.016-301.952z m0 557.568c-140.864 0-255.488-114.624-255.488-255.552s114.56-255.488 255.488-255.488 255.552 114.56 255.552 255.488-114.624 255.552-255.552 255.552zM23.232-22.528h905.92a23.232 23.232 0 1 0 0-46.4H23.232a23.232 23.232 0 0 0 0 46.4zM23.232 349.184H325.12a23.232 23.232 0 1 0 0-46.464H23.232a23.232 23.232 0 0 0 0 46.464zM23.232 744.064H325.12a23.232 23.232 0 1 0 0-46.464H23.232a23.232 23.232 0 0 0 0 46.464z"  horiz-adv-x="1024" />

    
    <glyph glyph-name="wode1" unicode="&#58880;" d="M853.372996-128H193.472461c-52.830119 0-193.472461 0-193.472461 136.358819 0 114.941204 265.816407 221.791308 393.132233 247.492448a95.189403 95.189403 0 0 1 4.997444 26.653032v15.468278a305.082036 305.082036 0 0 0-115.179177 153.968859 98.521032 98.521032 0 0 0-44.263073 79.959099v67.108528a64.252847 64.252847 0 0 0 26.653033 53.306066C282.9505 815.564955 367.431095 895.048106 523.303742 895.048106s241.543109-81.148966 258.201255-247.968394a79.245178 79.245178 0 0 0 25.939112-58.779456v-68.060423a79.007204 79.007204 0 0 0-44.73902-71.392052 302.226354 302.226354 0 0 0-114.465256-151.589124v-16.420172a84.956542 84.956542 0 0 1 4.997443-25.463165C780.553102 229.912154 1047.08343 123.06205 1047.08343 7.406925000000001c0-135.406925-145.639786-135.406925-193.710434-135.406925zM523.541715 850.54706c-135.168952 0-201.087613-65.680688-214.176156-214.176156v-13.802463l-12.612596-5.235418a19.037881 19.037881 0 0 1-11.660702-17.848013v-68.774343a50.92633 50.92633 0 0 1 26.415059-43.311178l9.518941-4.04555 3.093655-9.756914a258.201255 258.201255 0 0 1 109.22984-144.687892l11.184755-6.663258v-42.121311a141.356263 141.356263 0 0 0-13.802464-55.447827l-4.997443-10.708808-11.660702-1.903788c-151.827097-25.939112-367.669068-136.358819-367.669068-204.895189 0-64.49082 42.835231-90.90588 148.019521-90.90588h660.138508c105.18429 0 148.019521 26.415059 148.019521 90.90588 0 73.771787-229.644434 181.811759-368.145015 205.371136l-11.422728 1.903788-5.235417 10.232861a133.02719 133.02719 0 0 0-14.040437 54.97188v42.835231l11.184755 6.663259a255.82152 255.82152 0 0 1 108.991866 142.784104l3.569602 11.184755 11.422729 3.569602a33.792238 33.792238 0 0 1 23.79735 32.364397v70.202185a33.792238 33.792238 0 0 1-14.99233 28.080873l-9.042994 6.187312v10.946781c-13.802463 149.447362-79.721125 216.079944-215.12805 216.079944z"  horiz-adv-x="1047" />

    
    <glyph glyph-name="icon-test" unicode="&#58993;" d="M391.168 155.50464a20.48 20.48 0 0 0-16.384 8.192L165.62176 442.81856a20.48 20.48 0 0 0 32.768 24.576l196.608-262.144 490.496 393.70752a20.48 20.48 0 0 0 25.64096-31.9488l-507.0848-406.99904a20.48 20.48 0 0 0-12.88192-4.5056z"  horiz-adv-x="1024" />

    
    <glyph glyph-name="huiyuan" unicode="&#58886;" d="M194.4 72.8c-9.6 0-17.6 6.4-20 16L72 529.6H60c-26.4 0.8-47.2 22.4-47.2 48.8s21.6 48 48.8 48c26.4 0 48.8-21.6 48.8-48.8 0-6.4-1.6-13.6-4-20L99.2 544l217.6-97.6L496 724l-12 8.8c-12.8 8.8-20.8 24-20.8 40 0 26.4 21.6 48.8 48.8 48.8s48.8-21.6 48.8-48.8c0-16-8-31.2-20.8-40l-12-8 160-278.4 236.8 98.4-6.4 14.4c-2.4 6.4-4 12.8-4 19.2 0 26.4 21.6 48.8 48.8 48.8 26.4 0 48.8-21.6 48.8-48.8 0-26.4-21.6-48.8-48.8-48.8h-13.6L847.2 88c-2.4-9.6-10.4-16-20-16H194.4z m16 40H812l88 377.6-212-88c-2.4-0.8-4.8-1.6-8-1.6-7.2 0-13.6 4-17.6 9.6L510.4 672 340.8 410.4c-4-5.6-10.4-9.6-16.8-9.6-3.2 0-5.6 0.8-8 1.6l-192.8 86.4 87.2-376zM161.6-40c-13.6 0-24 10.4-24 24s10.4 24 24 24h699.2c13.6 0 24-10.4 24-24s-10.4-24-24-24H161.6z"  horiz-adv-x="1024" />

    
    <glyph glyph-name="zuji" unicode="&#59231;" d="M241.5 541.7c-80.6 0-146.1 65.6-146.1 146.1S160.9 833.9 241.5 833.9s146.1-65.6 146.1-146.1S322 541.7 241.5 541.7z m0 252.2c-58.5 0-106.1-47.6-106.1-106.1S183 581.7 241.5 581.7s106.1 47.6 106.1 106.1S300 793.9 241.5 793.9zM503 689.2c-38.9 0-70.5 31.6-70.5 70.5s31.6 70.5 70.5 70.5 70.5-31.6 70.5-70.5-31.7-70.5-70.5-70.5z m0 110.9c-22.3 0-40.5-18.2-40.5-40.5s18.2-40.5 40.5-40.5 40.5 18.2 40.5 40.5-18.2 40.5-40.5 40.5zM693.8 672c-38.9 0-70.5 31.6-70.5 70.5S655 813 693.8 813s70.5-31.6 70.5-70.5-31.6-70.5-70.5-70.5z m0 111c-22.3 0-40.5-18.2-40.5-40.5s18.2-40.5 40.5-40.5 40.5 18.2 40.5 40.5-18.2 40.5-40.5 40.5zM857.4 588.5c-35.6 0-64.5 29-64.5 64.5s29 64.5 64.5 64.5 64.5-29 64.5-64.5-28.9-64.5-64.5-64.5z m0 99.1c-19.1 0-34.5-15.5-34.5-34.5s15.5-34.5 34.5-34.5S892 634 892 653.1s-15.5 34.5-34.6 34.5zM584.8-62.5c-19.3 0-40.1 1.1-59.4 9.3-28 11.9-46 36.2-53.4 72.2-4.8 23.3-1.1 57.8 2.8 94.2 4.4 41.2 9.9 92.5-0.8 112.3-16.7 30.7-45.5 47-75.9 64.3-39.6 22.5-84.5 47.9-97 108.7-8.9 43.3-0.5 85.3 24.6 121.4 33.1 47.9 92.5 81.7 162.8 92.9 105.9 16.7 190.8-1.5 252.6-54.3 36.3-31 63.7-73.4 81.5-126.1 15.6-46.2 23.5-99.4 23.5-158 0-92.7-24.1-177.7-67.8-239.3-44.6-62.8-106-97.4-173-97.4-3.2 0-6.4 0-9.7-0.1-3.5-0.1-7.1-0.1-10.8-0.1z m-24.2 641.2c-20.8 0-42.7-1.8-65.9-5.5-58.7-9.3-109.6-37.7-136.2-76.1-18.9-27.3-25.1-57.8-18.3-90.6 8.9-43 40.7-61.1 77.6-82 32.4-18.4 69.2-39.2 91.3-80 16.7-30.8 11-84.1 5.4-135.6-3.4-31.8-7-64.7-3.4-81.9 9.8-47.9 38.3-50 84-49.5 3.4 0 6.8 0.1 10.1 0.1 114.4 0 200.8 127.6 200.8 296.8 0 113.4-32.3 203.5-91 253.7-39.4 33.7-91.2 50.6-154.4 50.6z"  horiz-adv-x="1024" />

    
    <glyph glyph-name="huoche" unicode="&#58893;" d="M932.344021 227.480055v2.2715h28.034582V778.250872a19.569847 19.569847 0 0 0 0.81541 4.174124V867.111179A28.869407 28.869407 0 0 1 932.344021 896H28.791768A28.830578 28.830578 0 0 1 0.000019 867.130593v-637.379038h28.791749v-2.2715z m350.432276-149.220082a152.59821 152.59821 0 0 1-95.597148 90.54937 150.520855 150.520855 0 0 1-91.888973 0 152.462309 152.462309 0 0 1-95.577734-90.54937 158.674958 158.674958 0 0 1-10.134385-54.244199c0-1.203701 0.155316-2.368573 0.155316-3.51403 1.941453-82.181708 69.038071-148.501744 151.433338-148.501744s149.491885 66.320036 151.433339 148.501744c0 1.145457 0.155316 2.310329 0.155316 3.51403a157.257698 157.257698 0 0 1-10.095556 54.244199z m-78.395874-57.758229a63.233126 63.233126 0 0 0-126.33035 0c0 1.145457-0.349462 2.290915-0.330048 3.51403a63.019566 63.019566 0 0 0 5.338996 25.335963 64.262096 64.262096 0 0 0 25.374792 28.908236 61.699378 61.699378 0 0 0 65.582284 0 64.067951 64.067951 0 0 0 25.433035-28.908236 63.349613 63.349613 0 0 0 5.338996-25.335963 33.490065 33.490065 0 0 0-0.407705-3.51403z m179.759138 196.339148V432.652814c0 166.964963-109.886243 253.243137-114.54573 256.81541a28.75292 28.75292 0 0 1-17.473077 5.960261H1020.214186a28.500531 28.500531 0 0 1-21.355984-9.707266V210.472926a19.065069 19.065069 0 0 0-5.067192-12.755347h-2.368573c0-0.660094 0.174731-1.261944 0.194145-1.941453a18.754437 18.754437 0 0 0-11.978765-4.562414H428.886414a192.067951 192.067951 0 0 0 32.247535-22.423783 190.495374 190.495374 0 0 0 58.96193-90.529956 188.185045 188.185045 0 0 0 6.037919-28.908236 188.418019 188.418019 0 0 0 1.941453-25.335963c0-1.203701-0.135902-2.368573-0.194146-3.51403H951.312017c0 1.145457-0.174731 2.310329-0.174731 3.51403A210.142879 210.142879 0 0 0 959.077829 78.259973a191.07781 191.07781 0 0 0 58.96193 90.568785h2.155012c-0.621265 0-1.281359 0.155316-1.941453 0.21356a191.504929 191.504929 0 0 0 84.239648 41.430608 187.854998 187.854998 0 0 0 77.483392 0 188.126801 188.126801 0 0 0 38.829061-12.735932 188.320946 188.320946 0 0 0 110.565752-148.385257 182.050053 182.050053 0 0 0 1.941453-25.335963c0-1.203701-0.135902-2.368573-0.174731-3.51403h31.568027a28.830578 28.830578 0 0 1 28.811163 28.849993v148.385257a28.947065 28.947065 0 0 1-7.377522 19.103898zM1049.025349 468.627939v169.022903h192.339755c19.181556-17.628394 71.717276-74.202336 82.880631-169.022903zM479.538924 78.259973a152.501138 152.501138 0 0 1-95.597148 90.54937 150.889732 150.889732 0 0 1-45.915365 7.183377 150.501441 150.501441 0 0 1-45.934779-7.183377 152.501138 152.501138 0 0 1-95.597149-90.54937 152.306992 152.306992 0 0 1-7.765812-28.908236A149.491885 149.491885 0 0 1 186.379513 24.015774c0-1.203701 0.135902-2.368573 0.155316-3.51403 1.941453-82.181708 69.038071-148.501744 151.433338-148.501744s149.588958 66.320036 151.433339 148.501744c0 1.145457 0.155316 2.310329 0.155316 3.51403a147.433945 147.433945 0 0 1-2.252085 25.335963 149.103595 149.103595 0 0 1-7.765813 28.908236z m-78.357045-57.758229a63.4661 63.4661 0 0 0-63.155468-60.185044 63.504929 63.504929 0 0 0-63.194297 60.185044c0 1.145457-0.349462 2.290915-0.349461 3.51403a63.349613 63.349613 0 0 0 5.338995 25.335963 64.067951 64.067951 0 0 0 25.374792 28.908236 63.07781 63.07781 0 0 0 32.791142 9.435462A63.07781 63.07781 0 0 0 370.817553 78.259973a64.32034 64.32034 0 0 0 25.394206-28.908236 63.660246 63.660246 0 0 0 5.319582-25.335963c0-1.223115-0.291218-2.368573-0.349462-3.51403z m-186.379493 148.307599a190.961323 190.961323 0 0 0 32.208706 22.423783c4.310026 2.407402 8.794782 4.445927 13.279539 6.503868 0.660094 0.232974 1.24253 0.582436 1.941453 0.854239H58.554244v-149.239496A28.811163 28.811163 0 0 1 87.365407 20.48233h60.80631c0 1.164872-0.21356 2.329744-0.21356 3.533444a188.185045 188.185045 0 0 0 1.941453 25.335963 185.932959 185.932959 0 0 0 6.076748 28.908236 190.534203 190.534203 0 0 0 58.981344 90.54937z m0 0"  horiz-adv-x="1391" />

    
    <glyph glyph-name="xiangyou1" unicode="&#58948;" d="M786.962963 384L333.748148 839.111111l-98.607407-98.607407L593.540741 384 235.140741 27.496296l98.607407-98.607407 356.503704 358.4z"  horiz-adv-x="1024" />

    
    <glyph glyph-name="fanhuizuojiantouxiangzuoshangyibuxianxing" unicode="&#59665;" d="M347.420444 383.260444l390.257778-390.229333a28.444444 28.444444 0 1 0-40.248889-40.220444L287.089778 363.150222a28.444444 28.444444 0 0 0 0 40.220445L697.429333 813.710222a28.444444 28.444444 0 0 0 40.220445-40.220444L347.420444 383.260444z"  horiz-adv-x="1024" />

    
    <glyph glyph-name="gouwuche1-copy" unicode="&#58901;" d="M354.81085383 94.25935474000005c-60.16378197 0-108.93726606-48.77464803-108.93726606-108.94425202 0-60.16145408 48.77232014-108.93726606 108.93726606-108.93726606 60.16727495 0 108.93959509 48.77464803 108.9395951 108.93726606C463.74928498 45.48470669999995 414.97696483 94.25935474000005 354.81085383 94.25935474000005zM354.81085383-75.20495388999996c-33.42458197 0-60.52238563 27.09780253-60.52238564 60.52704256 0 33.41992505 27.09780253 60.51772871 60.52238564 60.51772872 33.42458197 0 60.52238563-27.09780253 60.52238564-60.51772872C415.33323947-48.10715135999999 388.23543581-75.20495388999996 354.81085383-75.20495388999996zM174.08198997 747.89925433l-25.0439862 145.25745038L3.78288128 893.15670471l0-48.42186638 101.01307392 0 116.86844416-677.85374379 677.84908686 0 0 48.41720946L265.90994091 215.29830400000003l-13.09831965 75.96792377 646.70070101 69.28719872L1020.55825749 699.47738795l0 48.42186638L174.08198997 747.89925433zM875.30546403 408.97179989l-630.70561621-70.07542613-62.16986283 360.58101305 782.25957434 0L875.30546403 408.97179989zM766.36353991 94.25935474000005c-60.16378197 0-108.93959509-48.77464803-108.93959509-108.94425202 0-60.16145408 48.77464803-108.93726606 108.93959509-108.93726606s108.93959509 48.77464803 108.9395951 108.93726606C875.30313501 45.48470669999995 826.52732302 94.25935474000005 766.36353991 94.25935474000005zM766.36353991-75.20495388999996c-33.42691101 0-60.52238563 27.09780253-60.52238564 60.52704256 0 33.42458197 27.09547463 60.52005661 60.52238564 60.52005661 33.42458197 0 60.52238563-27.09547463 60.52238564-60.52005661C826.88592555-48.10715135999999 799.78812302-75.20495388999996 766.36353991-75.20495388999996z"  horiz-adv-x="1024" />

    
    <glyph glyph-name="location" unicode="&#58881;" d="M512.103132 575.879021a106.221743 106.221743 0 1 0-75.507022-31.354611A106.221743 106.221743 0 0 0 512.103132 575.879021m0 63.989002a170.850635 170.850635 0 1 1 120.939214-49.911422A169.570855 169.570855 0 0 1 512.103132 639.868023zM805.172761 771.685367a407.609942 407.609942 0 0 1-586.139257 0 431.285873 431.285873 0 0 1 0-599.576948L512.103132-128l293.069629 300.108419a431.285873 431.285873 0 0 1 0 599.576948z m-44.152411-557.344207l-248.917218-255.956007-248.917217 255.956007a365.377201 365.377201 0 0 0 0 508.712565 346.82039 346.82039 0 0 0 497.834435 0 365.377201 365.377201 0 0 0 0-508.712565z"  horiz-adv-x="1024" />

    
    <glyph glyph-name="xiangyou" unicode="&#58891;" d="M732.8 383.6c0-7.2-2.7-14.3-8.2-19.8L339.9-20.9c-10.9-10.9-28.7-10.9-39.6 0-10.9 10.9-10.9 28.7 0 39.6l364.9 364.9-365.8 365.7c-10.9 10.9-10.9 28.7 0 39.6 10.9 10.9 28.7 10.9 39.6 0l385.6-385.6c5.4-5.4 8.2-12.6 8.2-19.7z"  horiz-adv-x="1024" />

    
    <glyph glyph-name="dingwei" unicode="&#58934;" d="M512 384m-119.069767 0a119.069767 119.069767 0 1 1 238.139534 0 119.069767 119.069767 0 1 1-238.139534 0ZM512-128C228.613953-128 0 100.613953 0 384S228.613953 896 512 896 1024 667.386047 1024 384 795.386047-128 512-128z m0 952.55814C269.097674 824.55814 71.44186 626.902326 71.44186 384S269.097674-56.55814 512-56.55814 952.55814 141.097674 952.55814 384 754.902326 824.55814 512 824.55814zM512 600.706977c-26.195349 0-47.627907 21.432558-47.627907 47.627907v166.697674c0 26.195349 21.432558 47.627907 47.627907 47.627907s47.627907-21.432558 47.627907-47.627907v-166.697674c0-26.195349-21.432558-47.627907-47.627907-47.627907z m0 214.325581v-166.697674 166.697674zM512-99.423256c-26.195349 0-47.627907 21.432558-47.627907 47.627907v166.697675c0 26.195349 21.432558 47.627907 47.627907 47.627907s47.627907-21.432558 47.627907-47.627907v-166.697675c0-26.195349-21.432558-47.627907-47.627907-47.627907z m0 214.325582v-166.697675 166.697675zM226.232558 336.372093h-166.697674c-26.195349 0-47.627907 21.432558-47.627907 47.627907s21.432558 47.627907 47.627907 47.627907h166.697674c26.195349 0 47.627907-21.432558 47.627907-47.627907s-21.432558-47.627907-47.627907-47.627907z m-166.697674 47.627907h166.697674-166.697674zM964.465116 336.372093h-166.697674c-26.195349 0-47.627907 21.432558-47.627907 47.627907s21.432558 47.627907 47.627907 47.627907h166.697674c26.195349 0 47.627907-21.432558 47.627907-47.627907s-21.432558-47.627907-47.627907-47.627907z m-166.697674 47.627907h166.697674-166.697674z"  horiz-adv-x="1024" />

    
    <glyph glyph-name="paixu" unicode="&#58889;" d="M966.057954 895.92142h-904.86079a58.101588 58.101588 0 0 1-47.624252-95.248504l333.369764-380.994017v-357.181891l333.369765-190.497008V419.678899l333.369765 380.994017a58.101588 58.101588 0 0 1-47.624252 95.248504zM976.297168 830.438073l-343.608979-392.900079v-483.386159l-238.12126 135.96724V437.537994L49.529222 832.104922a9.048608 9.048608 0 0 0 0 9.524851 12.858548 12.858548 0 0 0 11.667942 6.667395h904.86079a12.858548 12.858548 0 0 0 12.620426-6.667395 10.001093 10.001093 0 0 0-2.381212-11.1917z"  horiz-adv-x="1027" />

    
    <glyph glyph-name="laba" unicode="&#58888;" d="M551.479 71.712c0-77.093-59.13-37.292-59.13-37.292L236.302 249.84h-39.544c-24.503 0-44.348 20.212-44.348 45.147V475.532c0 24.94 19.845 45.141 44.348 45.141h47.298L492.35 731.31s59.135 40.125 59.135-37.61v-621.992h-0.005v0.005z m133.015 193.184c73.91 60.18 68.978 174.284 0 225.688-27.088 16.293-44.334-37.62-44.334-37.62s68.969-86.514 0-150.457c-13.556-17.555 12.315-53.916 44.334-37.61z m36.955 353.572c-9.855 8.784-57.884-23.822-29.558-52.653 146.566-124.135 149.023-240.74 0-368.628-22.178-21.314 7.378-61.448 29.558-52.653 203.214 94.041 194.61 386.17 0 473.934z m0 0"  horiz-adv-x="1024" />

    


  </font>
</defs>
</svg>
